<svg version="1.2" xmlns="http://www.w3.org/2000/svg" viewBox="0 0 725 1155" width="725" height="1155"><style>.a{fill:#2d599c}.b{fill:#3c7cdb}</style><path class="a" d="m117.8 99.8c0.4 0.8 1 1.2 1.4 1 0.4-0.1 4.6 6.5 9.3 14.7 4.8 8.3 10 17.7 11.7 21 1.6 3.3 6.5 12.1 10.8 19.5 4.3 7.4 11.8 20.7 16.8 29.5 5.2 9.3 8.8 16.6 8.4 17.3-0.4 0.8-12.4 7.9-26.7 16-14.3 8-26.6 14.6-27.4 14.6-1.1 0.1-1.3-1.6-1.2-7.9 0.1-4.4-0.7-33.2-1.9-64-1.1-30.8-2-57.6-2-59.5 0-2 0.3-2.9 0.8-2.2zm542.3 34.7c0.5 0.3 0.2 2-0.7 3.8-0.9 1.7-2.4 4.3-3.4 5.7-1 1.4-3.9 6.6-6.5 11.5-2.7 4.9-8.8 15.5-13.5 23.5-4.8 8-12.4 21-17 29-4.5 8-10.2 18-12.6 22.3-2.9 5.1-5 7.7-6.1 7.7-1-0.1-13.5-6.9-27.8-15.3-14.3-8.4-26.1-15.9-26.3-16.7-0.1-0.9 0.5-1.5 1.5-1.6 1 0 15.8-9 32.8-19.9 17.1-10.9 41.7-26.7 54.9-35.1 13.1-8.5 24.2-15.1 24.7-14.9zm-69.6 751.6c1.6-0.1 3.9 3.1 11.1 15.6 5.1 8.7 10.7 18.7 12.4 22.3 1.8 3.6 6.1 11.2 9.5 17 3.4 5.8 10.5 18.1 15.7 27.5 5.2 9.4 11.7 21 14.3 26 2.7 5 6.6 11.9 12.7 22l1.9 59.5c1.1 32.7 1.8 62.4 1.7 66-0.2 5-0.7 6.5-1.8 6.5-0.8 0-1.6-0.9-1.9-2-0.2-1.1-7.6-15.3-32.6-61l-1.8-66-6.5-12c-3.6-6.6-10.4-18.7-15-27-4.7-8.2-12.5-22-17.2-30.5-4.8-8.5-12.9-22.9-17.9-32-5-9.1-9.1-17-9.1-17.5 0-0.5 5.1-4 11.3-7.6 6.1-3.7 12.1-6.8 13.2-6.8z"/><path class="a" d="m359.5 240c0.3 0 9.4 5 20.3 11.2 10.8 6.1 30.3 17.3 43.2 24.8 12.9 7.6 27.8 16.1 33 19 5.2 2.9 18.1 10.2 28.5 16.3 10.4 6 20.1 11.7 21.5 12.7 1.4 1 5 3 8 4.5 3 1.5 18.1 10 33.5 19 15.4 8.9 35.9 20.7 45.5 26.2 9.6 5.5 25.1 14.4 34.5 19.8 9.4 5.4 22.1 12.6 28.2 16.1 8.1 4.6 11.4 7 11.8 8.6 0.3 1.3 0.4 81.7 0 355.1l-15 8.5c-8.3 4.7-25.8 14.9-39 22.7-13.2 7.8-27.1 15.9-31 18-3.9 2.1-15.8 9-26.5 15.3-10.7 6.3-24.2 14.2-30 17.5-5.8 3.3-13.4 7.7-17 9.7-3.6 2-15.5 9-26.5 15.5-11 6.4-25.9 15-33 19-7.1 4-16.6 9.5-21 12.2-4.4 2.8-19.3 11.4-33 19.3-13.8 7.9-27.3 15.6-30 17.1-2.8 1.5-5.4 2.5-6 2.3-0.7-0.3-0.8-12.5 0-69.8l11.2-6.6c6.2-3.6 14.5-8.3 18.5-10.6 4-2.2 17.9-10.2 30.8-17.8 12.9-7.6 30.7-17.9 39.5-23 8.8-5.1 23.2-13.5 32-18.6 8.8-5.1 25.7-14.9 37.5-21.9 11.8-6.9 26.5-15.3 32.5-18.7 6-3.4 18.8-10.7 45.5-26.4v-68.8c0-37.8-0.3-101.9-1.5-216.2l-10.5-6.2c-5.8-3.3-13.8-7.9-17.8-10.2-4-2.3-12.1-6.8-18-10.2-5.9-3.3-19.2-11-29.7-17.1-10.5-6-25.3-14.6-33-19-7.7-4.4-21.2-12.1-30-17.2-8.8-5.1-26.4-15.2-39-22.5-12.6-7.3-27.7-16-33.5-19.3-5.8-3.3-16-9.1-34.9-19.8l-0.1-35.3c0-19.3 0.2-35.2 0.5-35.2zm187.9 671.3c1.4 0.1 5.2 5.9 13.4 20.2 6.3 11 13.5 24 16.1 29 2.6 5 10 18.1 28.1 49.5l0.7 9.8c0.5 7.4 0.4 9.5-0.5 9-0.7-0.5-1.3-0.4-1.5 0.1-0.1 0.5-6.5-10.6-14.1-24.7-7.7-14.2-21.5-39.7-30.7-56.7-9.2-17-17-31.7-17.4-32.5-0.4-1 0.2-1.9 1.7-2.7 1.3-0.7 3.2-1.1 4.2-1zm-368.2 1.6l3.7 2.2c2 1.2 4.2 2.9 4.8 3.8 1.1 1.3 0.8 2.4-1.4 6.1-1.4 2.5-4.9 8.8-7.8 14-2.9 5.2-11.1 19.4-18.2 31.5-7.1 12.1-16.3 28-20.4 35.4-7.4 13.3-7.4 13.3-15.9 19.2-4.7 3.2-9.3 5.9-10.3 5.9-0.9 0-1.7-0.7-1.7-1.5 0-0.8 0.4-1.6 1-1.7 0.5-0.2 7.5-12 15.6-26.3 8.1-14.3 21.9-38.8 30.7-54.5 8.8-15.7 16.9-29.7 18-31.3zm27.9 17.1c0.4 0 3.7 1.6 7.1 3.6 3.4 1.9 8.7 5 11.7 6.7 4 2.3 5.5 3.8 5.5 5.3 0 1.2-3.5 8.1-7.8 15.5-4.3 7.4-11.5 19.9-16.1 27.9-4.5 8-13.5 23.7-20 35-6.5 11.3-15.8 27.5-29.7 51.5l-17.7 11.5c-9.7 6.3-26.7 17.1-37.7 24-11 6.9-27.1 17.3-35.8 23-10.3 6.9-16.1 10.1-16.7 9.5-0.6-0.7 4.3-10.3 13.7-27 8.1-14.3 15.9-28 17.3-30.4 2.1-3.5 5.1-6 16.1-13 7.5-4.7 20-12.7 41.9-26.6l4.3-7.8c2.3-4.3 11.6-20.5 20.7-36 9-15.5 18.8-32.7 21.8-38.2 3-5.5 8.4-15 12-21 3.6-6.1 7-11.6 7.5-12.3 0.5-0.7 1.4-1.2 1.9-1.2z"/><path class="a" d="m395 391c0.6 0 2.7 1 4.8 2.3 2 1.3 7.8 4.5 12.7 7.2 4.9 2.6 16 8.9 24.5 13.8 8.5 4.9 19.8 11.6 25 14.7 5.2 3.2 12.2 7.1 15.5 8.8 3.3 1.6 15.9 8.8 28 15.9 12.1 7.1 27.6 16.1 34.4 19.9 6.8 3.8 13 7.8 13.8 8.9 1.1 1.6 1.3 21.7 1.4 224l-2.3 2.1c-1.3 1.2-5 3.6-8.3 5.4-3.3 1.8-12.2 6.9-19.8 11.4-8.9 5.2-14.1 7.7-14.7 7.1-0.5-0.5-8.8-23.7-18.5-51.5-9.7-27.8-18.2-52.8-18.9-55.5-0.8-2.8-8-23.9-16.2-47-8.1-23.1-16.6-48.1-18.9-55.5-2.4-7.4-8.9-26.6-14.5-42.5-5.6-15.9-14.6-42.3-20-58.5-5.4-16.2-9.6-29.8-9.3-30.3 0.2-0.4 0.8-0.7 1.3-0.7zm-34.5 57.2c0.6 0.7 8.4 22.7 17.2 48.8 8.8 26.1 21.3 63.5 27.7 83 6.5 19.5 11.4 35.8 10.9 36.2-0.4 0.5-13.4 0.7-56.8 0.3l-0.1-84.8c-0.1-65.5 0.1-84.6 1.1-83.5zm76.5 226.8l1.6 4.7c0.8 2.7 7.1 21.3 14 41.5 6.8 20.3 12.2 37.4 11.9 38-0.3 0.7-11.2 7.5-24.3 15.1-13 7.6-28.6 16.7-34.7 20.1-6.1 3.5-18.3 10.7-27.3 16-8.9 5.3-16.9 9.6-17.7 9.6-1.3 0-1.5-8.6-1.2-72 0.1-47.3-0.1-72.1-0.8-72.4-0.6-0.3 16.9-0.5 78.5-0.6z"/><path fill-rule="evenodd" class="b" d="m63.5 6.1c5.7-0.1 12.8 0.6 16.5 1.5 3.6 0.8 9.6 3.2 13.4 5.2 4.7 2.5 9.2 6.2 14.2 11.4 4.1 4.3 8.7 10.4 10.3 13.6 1.6 3.1 3.9 9.1 5.1 13.2 2 6.5 2.2 9 1.8 18.5-0.4 8.9-1.1 12.3-3.3 18-1.5 3.8-2.8 8.4-2.9 10.1-0.1 1.8-0.4 2.7-0.8 2-0.4-0.6-0.8 0.7-0.8 2.9 0 2.2 0.9 28.5 2 58.5 1.1 30 2 58.2 2 62.8 0 6.1-0.3 8.1-1.3 7.9-0.6-0.2-2.7-3.2-4.6-6.8-1.9-3.5-11.4-20.6-21.2-37.9-9.7-17.3-21.1-37.6-32.8-58.5l-6.1-0.7c-3.3-0.5-8.8-1.9-12.3-3.1-3.4-1.3-8.9-4.1-12.2-6.2-3.3-2.1-8.1-5.9-10.6-8.4-2.5-2.5-6.2-7.1-8.2-10.1-2-3-4.8-8.8-6.2-12.7-1.6-4.7-2.7-10.6-3.1-16.5-0.4-6.7-0.2-11.4 1-16.8 0.9-4.1 3.2-10.9 5.3-15 2.7-5.6 5.8-9.6 11.8-15.5 4.4-4.4 10.3-9.2 13-10.7 2.8-1.5 8.4-3.6 12.5-4.7 5-1.3 10.8-2 17.5-2zm-21.4 36.6c-2.4 2.1-5.4 6.2-6.9 9.3-1.9 4-2.7 7.6-3 13-0.3 5.8 0.1 8.7 1.7 13 1.1 3 3.8 7.5 5.9 10 2.2 2.5 6.5 5.8 9.8 7.5 5.2 2.6 6.9 3 14.4 3 7.5 0 9.2-0.4 14.4-3 3.2-1.7 7.4-4.7 9.2-6.8 1.9-2 4.4-5.6 5.6-8 1.5-2.9 2.3-6.7 2.6-12.2 0.5-7.4 0.3-8.5-2.6-14.8-1.8-3.8-5-8.5-7.5-10.8-2.3-2.2-6.6-4.9-9.5-6-3.4-1.2-7.6-1.9-12.5-1.8-4.6 0-9 0.7-12.2 1.9-2.8 1.1-7 3.6-9.4 5.7zm617.4-32.6c3.9 0 10.1 0.6 14 1.4 3.9 0.9 10.4 3.2 14.5 5.3 5.4 2.7 9.7 5.9 15.6 11.7 5.7 5.6 9.1 10.1 11.6 15 1.9 3.9 4.3 10.6 5.3 15 1.3 5.8 1.6 10.4 1.3 17-0.4 6.1-1.4 11.4-3.2 16.5-1.4 4.1-4.6 10.4-7 14-2.4 3.6-6.2 8.2-8.5 10.3-2.3 2-6.9 5.5-10.3 7.8-3.5 2.2-9.9 5.1-14.3 6.4-4.4 1.3-10.1 2.6-12.7 2.9-2.7 0.3-5 1-5.3 1.6-0.3 0.6-1 0.8-1.5 0.5-0.5-0.3-10.8 5.7-22.7 13.4-12 7.6-36.4 23.2-54.3 34.6-17.9 11.4-33.1 20.9-33.7 21.1-0.7 0.2-1.3-0.3-1.3-1.1 0-0.8 6.1-12 13.7-24.8 7.5-12.7 15.4-26.4 17.6-30.2 2.2-3.8 9.4-16.1 15.9-27.3 11.4-19.5 11.8-20.3 10.4-22.9-0.8-1.6-2.3-6-3.5-9.8-1.6-5.1-2.1-9.6-2.1-16.8 0-7.5 0.6-11.4 2.5-17.4 1.3-4.3 4.1-10.7 6.2-14.2 2.1-3.5 7-9.3 10.8-13 3.9-3.6 9.7-8 13-9.8 3.3-1.8 9.4-4.1 13.5-5.2 4.1-1.1 10.6-2 14.5-2zm-20.2 37.5c-2.9 2.2-5.4 5.7-7.5 10.1-2.9 6-3.3 7.7-3.2 14.8 0 6.7 0.5 8.9 2.7 13.2 1.5 2.9 4 6.8 5.6 8.5 1.5 1.8 5 4.5 7.7 6 2.7 1.5 7.6 3.2 10.9 3.8 4.4 0.7 7.5 0.6 11.5-0.3 3-0.7 7.5-2.4 10-3.8 2.5-1.5 6.2-4.6 8.2-7 2-2.4 4.4-6.4 5.4-8.9 1-2.6 1.7-7.5 1.7-11.5 0.1-4-0.6-9.2-1.6-12-0.9-2.8-3.6-7.2-5.9-9.8-2.6-3-6.7-6-10.3-7.8-5.1-2.5-7.1-2.9-14-2.9-5.9 0-9.2 0.6-12.5 2.1-2.5 1.1-6.4 3.6-8.7 5.5zm-391.8 117.4c2.3 0 5.4 0.9 7.3 2 1.9 1.2 4.2 4 5.7 7.2 1.4 2.9 3.2 8.9 4.1 13.3 1.4 6.7 1.5 9.3 0.5 16-0.7 5.1-2.4 10.5-4.5 15-1.9 3.8-5.6 9.5-8.3 12.5-2.7 3-7.4 7.1-10.4 9.1-3 2-10.8 6.6-17.4 10.1-6.6 3.5-22.8 12.7-36 20.2-13.2 7.6-28 16-33 18.5-4.9 2.6-15.3 8.4-23 12.8-7.7 4.5-16.9 9.1-20.5 10.4-4.8 1.6-8.9 2.2-15.5 2.3-6.3 0-10.7-0.5-14.5-1.8-3-1-7.7-3-10.5-4.4-2.7-1.4-8-5.5-11.7-9.1-4-4-7.5-8.6-8.8-11.6-1.5-3.4-2-6-1.6-8.3 0.3-1.7 2.1-4.7 3.9-6.5 1.8-1.7 8.2-5.9 14.2-9.1 6.1-3.3 20.5-11.3 32-17.8 11.6-6.5 21.5-11.8 22-11.8 0.6 0 12.7-6.6 27-14.6 14.3-8.1 26.5-15.2 27-15.8 0.6-0.6 6.6-4.4 13.5-8.3 6.9-3.9 15.4-8.5 19-10.3 3.6-1.8 8.3-4.4 10.5-5.8 2.2-1.4 8.7-5.1 14.5-8.4 7.9-4.3 11.5-5.8 14.5-5.8zm229 2.5c2.6 0.3 9.1 3.5 19 9.3 8.3 4.9 21.5 12.6 29.5 17.2 8 4.5 16.3 9.5 18.5 11 2.2 1.6 15.6 9.6 29.8 17.9 14.1 8.3 26.2 15.1 26.7 15.1 0.5 0 8.5 4.4 17.8 9.8 9.2 5.4 23 13.4 30.7 17.8 7.7 4.3 15.7 9.5 17.8 11.4 2.1 1.9 4.2 4.9 4.8 6.5 0.6 1.9 0.5 4.2-0.1 6.5-0.6 1.9-2.8 5.7-4.8 8.5-2.1 2.7-5.8 6.6-8.3 8.6-2.4 2-6 4.5-7.9 5.6-1.9 1.2-6.6 3.1-10.5 4.2-4.5 1.4-9.7 2.1-14.5 2.1-4.8 0-10-0.7-14.5-2.1-4.4-1.3-13.5-5.9-24.5-12.4-9.6-5.6-21.5-12.5-26.5-15.3-5-2.7-18-10.2-29-16.7-11-6.5-23.1-13.6-27-15.8-3.9-2.2-11.3-6.5-16.5-9.6-5.2-3-11.5-7.3-13.8-9.6-2.4-2.2-6-6.5-8-9.5-2-3-4.7-8.7-6-12.5-1.9-5.4-2.5-9-2.4-16 0-6.6 0.6-10.8 2.2-15.5 1.2-3.6 3.3-8.2 4.7-10.3 1.4-2.1 4-4.5 5.7-5.3 1.8-0.8 4.7-1.2 7.1-0.9zm34.5 764.6c0.8-0.1 2.4 1.6 3.6 3.7 1.1 2 7.6 13.6 14.4 25.7 6.8 12.1 19.2 34.1 27.6 49 8.3 14.8 16.5 29.5 18.2 32.5 2.9 5.2 4.3 6.3 25.9 20.6 12.5 8.3 24.7 16.3 27.1 17.7 2.3 1.5 4.7 2.7 5.2 2.7 0.5 0 1 0.6 1 1.2 0 0.7 7.2 14.5 16 30.5 8.8 16.1 16 29.7 16 30.3 0 0.5-0.6 0.8-1.2 0.6-0.7-0.2-13.5-8.4-28.5-18.2-14.9-9.8-38.6-25.4-78.3-51.4l-6.2-11.6c-3.5-6.3-11.7-21.1-18.3-32.7-6.7-11.7-15.2-26.8-18.9-33.7-3.8-6.9-11.8-21.2-17.7-31.8-6.3-11.1-10.7-19.9-10.4-21 0.2-0.9 5.4-4.4 11.7-7.9 6.2-3.4 12-6.2 12.8-6.2z"/><path class="b" d="m358.2 240c0.4 0 0.9 15.8 1.3 70.1l-11 6.3c-6 3.5-13 7.4-15.5 8.8-2.5 1.3-16.4 9.4-31 18-14.6 8.5-32.4 18.9-39.5 23-7.1 4.1-21.8 12.5-32.5 18.8-10.7 6.2-31.4 18.3-46 26.8-14.6 8.6-29.9 17.4-34 19.6-4.1 2.3-14.4 8.2-38 22.1v44.5c0 24.5 0.3 88.6 1.3 240.5l12.9 7.5c7.2 4.1 15.8 9 19.1 10.9 3.4 1.9 19 10.8 34.7 19.9 15.7 9 30.3 17.4 32.5 18.7 2.2 1.2 15.7 8.9 30 17.2 14.3 8.3 37 21.4 50.5 29.1 13.5 7.7 28.1 16.1 32.5 18.7 4.4 2.6 13.8 7.9 20.9 11.8 7.1 4 12.8 7.5 12.7 8 0 0.4-0.1 16-0.1 34.7 0 26.5-0.3 34-1.2 34-0.7 0-8.3-4-16.8-8.9-8.5-4.9-28.8-16.5-45-25.9-16.2-9.3-39.9-22.9-52.5-30.2-12.6-7.3-29.7-17.1-38-21.8-8.2-4.6-24.7-14.1-36.5-21-11.8-6.9-25.3-14.7-30-17.2-4.7-2.5-19.7-11.1-33.5-19.1-13.7-8-31.3-18.1-53-30.5l-0.6-28.9c-0.3-16-0.7-95.8-0.8-177.5-0.1-118.5 0.1-148.8 1.1-150.2 0.7-0.9 12.1-7.8 25.3-15.4 13.2-7.5 30.1-17.3 37.5-21.7 7.4-4.4 17.3-10.1 22-12.7 4.7-2.5 20-11.4 34-19.6 14-8.3 30.7-18 37-21.6 6.3-3.6 21.2-12.2 33-19.1 11.8-6.9 35.4-20.5 52.3-30.4 16.9-9.8 38.3-22.2 47.5-27.5 9.2-5.4 17-9.8 17.4-9.8zm-230.6 644c0.8 0 6.6 3 12.9 6.7 6.3 3.8 11.5 7.3 11.5 7.8 0 0.5-3.8 8-8.6 16.5-4.8 8.5-14.8 26.1-22.4 39-7.5 12.9-15.7 27.1-18.2 31.5-2.4 4.4-7.4 13.2-17.8 31l-1 24c-0.5 13.2-1.2 28.3-1.7 43l-15.9 28c-8.7 15.4-15.8 28.8-15.9 29.7 0 0.9-0.8 2.5-1.7 3.5-1.5 1.5-2 1.6-3 0.5-1.1-1-0.8-13.7 1.5-64.5 1.5-34.8 3-64.1 3.2-65.2 0.2-1.1 6.1-11.9 13.1-24 7-12.1 17.7-30.5 23.7-41 6.1-10.5 16.5-28.5 23-40 6.6-11.5 12.8-22.2 13.9-23.8 1.1-1.5 2.6-2.7 3.4-2.7zm43.9 25c0.6 0.1 2.5 0.9 7.5 4l-2.4 3.7c-1.3 2.1-10.4 18-20.2 35.3-9.7 17.3-23.4 41.5-30.3 53.8-6.9 12.2-12.9 22.2-13.3 22.2-0.5 0-0.8-4.5-0.8-20l5.6-9.8c3.1-5.3 8.8-15.1 12.7-21.7 3.9-6.6 14-24.1 22.5-39 8.5-14.9 15.9-27.3 16.6-27.7 0.6-0.4 1.5-0.8 2.1-0.8zm369.6 5.8c0.3 0.4 8.3 14.9 17.6 32.2 9.3 17.3 23.2 43 30.9 57.1 8.1 15 14.2 25.2 14.6 24.5 0.4-0.6 0.8-0.7 0.8-0.1 0.1 0.5-0.6 1.6-1.5 2.2-1.2 1.1-2.9 0.5-9.8-3.6-8.1-4.9-8.2-5-14.3-15.8-3.4-5.9-12.2-21.5-19.5-34.5-7.4-13-17-30.1-21.4-38-4.4-7.9-8.1-15.3-8.3-16.6-0.1-1.7 0.9-2.8 5-5.2 2.9-1.6 5.5-2.6 5.9-2.2z"/><path class="b" d="m325.4 391c0.8 0.7 0.6 2.8-0.7 7.2-1.1 3.5-6.6 20-12.4 36.8-5.8 16.8-17.5 51-26 76-8.5 25-22.8 67.1-31.8 93.5-9 26.4-20.9 61.3-26.5 77.5-5.6 16.2-11.7 34.3-13.6 40.3-2.6 8.2-3.8 10.7-5.1 10.7-1 0-8.3-3.8-16.3-8.4-8-4.5-17.4-9.9-27.5-15.4l-0.7-47.4c-0.5-26-0.8-76.4-0.8-112 0-35.7 0.3-65.5 0.8-66.4 0.4-0.9 5.2-4.1 10.7-7.2 5.5-3 21.3-12.1 35-20.2 13.8-8.1 28.2-16.4 32-18.5 3.9-2.1 11.3-6.4 16.5-9.5 5.2-3.1 16.9-10 26-15.2 9.1-5.3 21.6-12.5 27.9-16.1 7.3-4.2 11.8-6.2 12.5-5.7zm32.9 53.3c0.7 0.1 1.5 0.7 1.9 1.2 0.4 0.6 0.8 1.7 0.8 2.5 0 1.3-0.1 1.3-1 0-0.6-1-0.9 28-0.5 169h-29.2c-27.2 0-29.3-0.1-29.3-1.7 0-1 6-20 13.4-42.3 7.4-22.3 19.8-60.1 27.6-84 7.9-23.9 14.5-43.8 14.7-44.2 0.2-0.4 0.9-0.7 1.6-0.5zm-37.8 230.8c20.4 0 37.5 0.3 38 0.7 0.7 0.4 0.8 25.2 0 144.3l-18-10.6c-9.9-5.9-24.1-14.1-31.5-18.2-7.4-4.2-22.8-13-34.2-19.7-19.5-11.4-20.7-12.2-20.2-14.6 0.3-1.4 6.4-20.1 13.6-41.7 7.1-21.5 13.4-39.4 14.1-39.7 0.7-0.2 17.9-0.5 38.2-0.5z"/></svg>